<svg baseProfile="full" height="100%" version="1.1" viewBox="25.0,5.0,475.0,620.0" width="100%" xmlns="http://www.w3.org/2000/svg" xmlns:ev="http://www.w3.org/2001/xml-events" xmlns:xlink="http://www.w3.org/1999/xlink"><defs /><g><line stroke="lightgrey" stroke-dasharray="2" x1="190.0" x2="189.0" y1="15.0" y2="15.0" /><line stroke="lightgrey" stroke-dasharray="2" x1="170.0" x2="189.0" y1="35.0" y2="35.0" /><line stroke="lightgrey" stroke-dasharray="2" x1="150.0" x2="189.0" y1="55.0" y2="55.0" /><line stroke="lightgrey" stroke-dasharray="2" x1="130.0" x2="189.0" y1="75.0" y2="75.0" /><line stroke="lightgrey" stroke-dasharray="2" x1="110.0" x2="189.0" y1="95.0" y2="95.0" /><line stroke="lightgrey" stroke-dasharray="2" x1="190.0" x2="189.0" y1="115.0" y2="115.0" /><line stroke="lightgrey" stroke-dasharray="2" x1="90.0" x2="189.0" y1="135.0" y2="135.0" /><line stroke="lightgrey" stroke-dasharray="2" x1="70.0" x2="189.0" y1="155.0" y2="155.0" /><line stroke="lightgrey" stroke-dasharray="2" x1="110.0" x2="189.0" y1="175.0" y2="175.0" /><line stroke="lightgrey" stroke-dasharray="2" x1="90.0" x2="189.0" y1="195.0" y2="195.0" /><line stroke="lightgrey" stroke-dasharray="2" x1="170.0" x2="189.0" y1="215.0" y2="215.0" /><line stroke="lightgrey" stroke-dasharray="2" x1="90.0" x2="189.0" y1="235.0" y2="235.0" /><line stroke="lightgrey" stroke-dasharray="2" x1="50.0" x2="189.0" y1="255.0" y2="255.0" /><line stroke="lightgrey" stroke-dasharray="2" x1="70.0" x2="189.0" y1="275.0" y2="275.0" /><line stroke="lightgrey" stroke-dasharray="2" x1="170.0" x2="189.0" y1="295.0" y2="295.0" /><line stroke="lightgrey" stroke-dasharray="2" x1="90.0" x2="189.0" y1="315.0" y2="315.0" /><line stroke="lightgrey" stroke-dasharray="2" x1="50.0" x2="189.0" y1="335.0" y2="335.0" /><line stroke="lightgrey" stroke-dasharray="2" x1="90.0" x2="189.0" y1="355.0" y2="355.0" /><line stroke="lightgrey" stroke-dasharray="2" x1="70.0" x2="189.0" y1="375.0" y2="375.0" /><line stroke="lightgrey" stroke-dasharray="2" x1="110.0" x2="189.0" y1="395.0" y2="395.0" /><line stroke="lightgrey" stroke-dasharray="2" x1="90.0" x2="189.0" y1="415.0" y2="415.0" /><line stroke="lightgrey" stroke-dasharray="2" x1="70.0" x2="189.0" y1="435.0" y2="435.0" /><line stroke="lightgrey" stroke-dasharray="2" x1="110.0" x2="189.0" y1="455.0" y2="455.0" /><line stroke="lightgrey" stroke-dasharray="2" x1="170.0" x2="189.0" y1="475.0" y2="475.0" /><line stroke="lightgrey" stroke-dasharray="2" x1="150.0" x2="189.0" y1="495.0" y2="495.0" /><line stroke="lightgrey" stroke-dasharray="2" x1="190.0" x2="189.0" y1="515.0" y2="515.0" /><line stroke="lightgrey" stroke-dasharray="2" x1="170.0" x2="189.0" y1="535.0" y2="535.0" /><line stroke="lightgrey" stroke-dasharray="2" x1="110.0" x2="189.0" y1="555.0" y2="555.0" /><line stroke="lightgrey" stroke-dasharray="2" x1="150.0" x2="189.0" y1="575.0" y2="575.0" /><line stroke="lightgrey" stroke-dasharray="2" x1="190.0" x2="189.0" y1="595.0" y2="595.0" /><line stroke="lightgrey" stroke-dasharray="2" x1="130.0" x2="149.0" y1="615.0" y2="615.0" /></g><g><line stroke="#c65353" stroke-width="2.0" x1="175.0" x2="175.0" y1="15.0" y2="115.0" /><line stroke="#5353c6" stroke-width="2.0" x1="95.0" x2="95.0" y1="95.0" y2="175.0" /><line stroke="#c65353" stroke-width="2.0" x1="75.0" x2="75.0" y1="135.0" y2="195.0" /><line stroke="#c6c653" stroke-width="2.0" x1="155.0" x2="155.0" y1="35.0" y2="215.0" /><line stroke="#8cd98c" stroke-width="2.0" x1="75.0" x2="75.0" y1="195.0" y2="235.0" /><line stroke="#d98c8c" stroke-width="2.0" x1="55.0" x2="55.0" y1="155.0" y2="275.0" /><line stroke="#8cd9d9" stroke-width="2.0" x1="155.0" x2="155.0" y1="215.0" y2="295.0" /><line stroke="#d98cd9" stroke-width="2.0" x1="35.0" x2="35.0" y1="255.0" y2="300.0" /><line stroke="#8c8cd9" stroke-width="2.0" x1="75.0" x2="75.0" y1="235.0" y2="315.0" /><line stroke="#999933" stroke-width="2.0" x1="75.0" x2="75.0" y1="315.0" y2="355.0" /><line stroke="#339933" stroke-width="2.0" x1="35.0" x2="35.0" y1="335.0" y2="360.0" /><line stroke="#d98c8c" stroke-width="2.0" x1="55.0" x2="55.0" y1="275.0" y2="375.0" /><line stroke="#333399" stroke-width="2.0" x1="55.0" x2="55.0" y1="375.0" y2="380.0" /><line stroke="#d9d98c" stroke-width="2.0" x1="95.0" x2="95.0" y1="175.0" y2="395.0" /><line stroke="#339999" stroke-width="2.0" x1="75.0" x2="75.0" y1="355.0" y2="415.0" /><line stroke="#993399" stroke-width="2.0" x1="95.0" x2="95.0" y1="395.0" y2="455.0" /><line stroke="#993333" stroke-width="2.0" x1="75.0" x2="75.0" y1="415.0" y2="460.0" /><line stroke="#993333" stroke-width="2.0" x1="155.0" x2="155.0" y1="295.0" y2="475.0" /><line stroke="#53c653" stroke-width="2.0" x1="135.0" x2="135.0" y1="55.0" y2="495.0" /><line stroke="#c653c6" stroke-width="2.0" x1="175.0" x2="175.0" y1="115.0" y2="515.0" /><line stroke="#c65353" stroke-width="2.0" x1="55.0" x2="55.0" y1="435.0" y2="520.0" /><line stroke="#53c653" stroke-width="2.0" x1="155.0" x2="155.0" y1="475.0" y2="535.0" /><line stroke="#c6c653" stroke-width="2.0" x1="95.0" x2="95.0" y1="455.0" y2="555.0" /><line stroke="#c653c6" stroke-width="2.0" x1="155.0" x2="155.0" y1="535.0" y2="540.0" /><line stroke="#c65353" stroke-width="2.0" x1="95.0" x2="95.0" y1="555.0" y2="560.0" /><line stroke="#53c6c6" stroke-width="2.0" x1="135.0" x2="135.0" y1="495.0" y2="575.0" /><line stroke="#5353c6" stroke-width="2.0" x1="175.0" x2="175.0" y1="515.0" y2="595.0" /><line stroke="#53c6c6" stroke-width="2.0" x1="115.0" x2="115.0" y1="75.0" y2="615.0" /><line stroke="#d98c8c" stroke-width="2.0" x1="135.0" x2="135.0" y1="575.0" y2="600.0" /></g><g><line stroke="white" stroke-width="6.0" x1="155.0" x2="160.0" y1="35.0" y2="35.0" /><line stroke="white" stroke-width="6.0" x1="135.0" x2="160.0" y1="55.0" y2="55.0" /><line stroke="white" stroke-width="6.0" x1="115.0" x2="160.0" y1="75.0" y2="75.0" /><line stroke="white" stroke-width="6.0" x1="95.0" x2="140.0" y1="95.0" y2="95.0" /><line stroke="white" stroke-width="6.0" x1="130.0" x2="175.0" y1="115.0" y2="115.0" /><line stroke="white" stroke-width="6.0" x1="75.0" x2="100.0" y1="135.0" y2="135.0" /><line stroke="white" stroke-width="6.0" x1="55.0" x2="100.0" y1="155.0" y2="155.0" /><line stroke="white" stroke-width="6.0" x1="95.0" x2="100.0" y1="175.0" y2="175.0" /><line stroke="white" stroke-width="6.0" x1="70.0" x2="75.0" y1="195.0" y2="195.0" /><line stroke="white" stroke-width="6.0" x1="90.0" x2="155.0" y1="215.0" y2="215.0" /><line stroke="white" stroke-width="6.0" x1="75.0" x2="100.0" y1="235.0" y2="235.0" /><line stroke="white" stroke-width="6.0" x1="35.0" x2="160.0" y1="255.0" y2="255.0" /><line stroke="white" stroke-width="6.0" x1="55.0" x2="60.0" y1="275.0" y2="275.0" /><line stroke="white" stroke-width="6.0" x1="90.0" x2="155.0" y1="295.0" y2="295.0" /><line stroke="white" stroke-width="6.0" x1="50.0" x2="75.0" y1="315.0" y2="315.0" /><line stroke="white" stroke-width="6.0" x1="35.0" x2="120.0" y1="335.0" y2="335.0" /><line stroke="white" stroke-width="6.0" x1="75.0" x2="120.0" y1="355.0" y2="355.0" /><line stroke="white" stroke-width="6.0" x1="50.0" x2="55.0" y1="375.0" y2="375.0" /><line stroke="white" stroke-width="6.0" x1="70.0" x2="95.0" y1="395.0" y2="395.0" /><line stroke="white" stroke-width="6.0" x1="75.0" x2="80.0" y1="415.0" y2="415.0" /><line stroke="white" stroke-width="6.0" x1="55.0" x2="100.0" y1="435.0" y2="435.0" /><line stroke="white" stroke-width="6.0" x1="95.0" x2="160.0" y1="455.0" y2="455.0" /><line stroke="white" stroke-width="6.0" x1="90.0" x2="155.0" y1="475.0" y2="475.0" /><line stroke="white" stroke-width="6.0" x1="70.0" x2="135.0" y1="495.0" y2="495.0" /><line stroke="white" stroke-width="6.0" x1="110.0" x2="175.0" y1="515.0" y2="515.0" /><line stroke="white" stroke-width="6.0" x1="70.0" x2="155.0" y1="535.0" y2="535.0" /><line stroke="white" stroke-width="6.0" x1="95.0" x2="140.0" y1="555.0" y2="555.0" /><line stroke="white" stroke-width="6.0" x1="110.0" x2="135.0" y1="575.0" y2="575.0" /><line stroke="white" stroke-width="6.0" x1="150.0" x2="175.0" y1="595.0" y2="595.0" /><line stroke="white" stroke-width="6.0" x1="115.0" x2="120.0" y1="615.0" y2="615.0" /></g><g><path d="M 175.0,20.0 a15.0,15.0 0 0,1 -15.0,15.0" fill="none" stroke="#c65353" stroke-width="2.0" /><line stroke="#c65353" stroke-width="2.0" x1="155.0" x2="160.0" y1="35.0" y2="35.0" /><path d="M 155.0,40.0 a15.0,15.0 0 0,1 -15.0,15.0" fill="none" stroke="#c6c653" stroke-width="2.0" /><path d="M 175.0,40.0 a15.0,15.0 0 0,1 -15.0,15.0" fill="none" stroke="#c65353" stroke-width="2.0" /><line stroke="#c65353" stroke-width="2.0" x1="135.0" x2="160.0" y1="55.0" y2="55.0" /><path d="M 135.0,60.0 a15.0,15.0 0 0,1 -15.0,15.0" fill="none" stroke="#53c653" stroke-width="2.0" /><path d="M 175.0,60.0 a15.0,15.0 0 0,1 -15.0,15.0" fill="none" stroke="#c65353" stroke-width="2.0" /><line stroke="#c65353" stroke-width="2.0" x1="115.0" x2="160.0" y1="75.0" y2="75.0" /><path d="M 135.0,80.0 a15.0,15.0 0 0,1 -15.0,15.0" fill="none" stroke="#53c653" stroke-width="2.0" /><path d="M 155.0,80.0 a15.0,15.0 0 0,1 -15.0,15.0" fill="none" stroke="#c6c653" stroke-width="2.0" /><line stroke="#c6c653" stroke-width="2.0" x1="95.0" x2="140.0" y1="95.0" y2="95.0" /><path d="M 115.0,100.0 a15.0,15.0 0 0,0 15.0,15.0" fill="none" stroke="#53c6c6" stroke-width="2.0" /><line stroke="#53c6c6" stroke-width="2.0" x1="130.0" x2="175.0" y1="115.0" y2="115.0" /><path d="M 95.0,120.0 a15.0,15.0 0 0,1 -15.0,15.0" fill="none" stroke="#5353c6" stroke-width="2.0" /><path d="M 115.0,120.0 a15.0,15.0 0 0,1 -15.0,15.0" fill="none" stroke="#53c6c6" stroke-width="2.0" /><line stroke="#53c6c6" stroke-width="2.0" x1="75.0" x2="100.0" y1="135.0" y2="135.0" /><path d="M 95.0,140.0 a15.0,15.0 0 0,1 -15.0,15.0" fill="none" stroke="#5353c6" stroke-width="2.0" /><path d="M 115.0,140.0 a15.0,15.0 0 0,1 -15.0,15.0" fill="none" stroke="#53c6c6" stroke-width="2.0" /><line stroke="#53c6c6" stroke-width="2.0" x1="55.0" x2="100.0" y1="155.0" y2="155.0" /><path d="M 115.0,160.0 a15.0,15.0 0 0,1 -15.0,15.0" fill="none" stroke="#53c6c6" stroke-width="2.0" /><line stroke="#53c6c6" stroke-width="2.0" x1="95.0" x2="100.0" y1="175.0" y2="175.0" /><path d="M 55.0,180.0 a15.0,15.0 0 0,0 15.0,15.0" fill="none" stroke="#d98c8c" stroke-width="2.0" /><line stroke="#d98c8c" stroke-width="2.0" x1="70.0" x2="75.0" y1="195.0" y2="195.0" /><path d="M 75.0,200.0 a15.0,15.0 0 0,0 15.0,15.0" fill="none" stroke="#8cd98c" stroke-width="2.0" /><line stroke="#8cd98c" stroke-width="2.0" x1="90.0" x2="155.0" y1="215.0" y2="215.0" /><path d="M 115.0,220.0 a15.0,15.0 0 0,1 -15.0,15.0" fill="none" stroke="#53c6c6" stroke-width="2.0" /><line stroke="#53c6c6" stroke-width="2.0" x1="75.0" x2="100.0" y1="235.0" y2="235.0" /><path d="M 155.0,240.0 a15.0,15.0 0 0,1 -15.0,15.0" fill="none" stroke="#8cd9d9" stroke-width="2.0" /><path d="M 175.0,240.0 a15.0,15.0 0 0,1 -15.0,15.0" fill="none" stroke="#c653c6" stroke-width="2.0" /><line stroke="#c653c6" stroke-width="2.0" x1="35.0" x2="160.0" y1="255.0" y2="255.0" /><path d="M 75.0,260.0 a15.0,15.0 0 0,1 -15.0,15.0" fill="none" stroke="#8c8cd9" stroke-width="2.0" /><line stroke="#8c8cd9" stroke-width="2.0" x1="55.0" x2="60.0" y1="275.0" y2="275.0" /><path d="M 75.0,280.0 a15.0,15.0 0 0,0 15.0,15.0" fill="none" stroke="#8c8cd9" stroke-width="2.0" /><line stroke="#8c8cd9" stroke-width="2.0" x1="90.0" x2="155.0" y1="295.0" y2="295.0" /><path d="M 35.0,300.0 a15.0,15.0 0 0,0 15.0,15.0" fill="none" stroke="#d98cd9" stroke-width="2.0" /><line stroke="#d98cd9" stroke-width="2.0" x1="50.0" x2="75.0" y1="315.0" y2="315.0" /><path d="M 75.0,320.0 a15.0,15.0 0 0,1 -15.0,15.0" fill="none" stroke="#999933" stroke-width="2.0" /><path d="M 135.0,320.0 a15.0,15.0 0 0,1 -15.0,15.0" fill="none" stroke="#53c653" stroke-width="2.0" /><line stroke="#53c653" stroke-width="2.0" x1="35.0" x2="120.0" y1="335.0" y2="335.0" /><path d="M 135.0,340.0 a15.0,15.0 0 0,1 -15.0,15.0" fill="none" stroke="#53c653" stroke-width="2.0" /><line stroke="#53c653" stroke-width="2.0" x1="75.0" x2="120.0" y1="355.0" y2="355.0" /><path d="M 35.0,360.0 a15.0,15.0 0 0,0 15.0,15.0" fill="none" stroke="#339933" stroke-width="2.0" /><line stroke="#339933" stroke-width="2.0" x1="50.0" x2="55.0" y1="375.0" y2="375.0" /><path d="M 55.0,380.0 a15.0,15.0 0 0,0 15.0,15.0" fill="none" stroke="#333399" stroke-width="2.0" /><line stroke="#333399" stroke-width="2.0" x1="70.0" x2="95.0" y1="395.0" y2="395.0" /><path d="M 95.0,400.0 a15.0,15.0 0 0,1 -15.0,15.0" fill="none" stroke="#993399" stroke-width="2.0" /><line stroke="#993399" stroke-width="2.0" x1="75.0" x2="80.0" y1="415.0" y2="415.0" /><path d="M 95.0,420.0 a15.0,15.0 0 0,1 -15.0,15.0" fill="none" stroke="#993399" stroke-width="2.0" /><path d="M 115.0,420.0 a15.0,15.0 0 0,1 -15.0,15.0" fill="none" stroke="#53c6c6" stroke-width="2.0" /><line stroke="#53c6c6" stroke-width="2.0" x1="55.0" x2="100.0" y1="435.0" y2="435.0" /><path d="M 175.0,440.0 a15.0,15.0 0 0,1 -15.0,15.0" fill="none" stroke="#c653c6" stroke-width="2.0" /><line stroke="#c653c6" stroke-width="2.0" x1="95.0" x2="160.0" y1="455.0" y2="455.0" /><path d="M 75.0,460.0 a15.0,15.0 0 0,0 15.0,15.0" fill="none" stroke="#993333" stroke-width="2.0" /><line stroke="#993333" stroke-width="2.0" x1="90.0" x2="155.0" y1="475.0" y2="475.0" /><path d="M 55.0,480.0 a15.0,15.0 0 0,0 15.0,15.0" fill="none" stroke="#c65353" stroke-width="2.0" /><line stroke="#c65353" stroke-width="2.0" x1="70.0" x2="135.0" y1="495.0" y2="495.0" /><path d="M 95.0,500.0 a15.0,15.0 0 0,0 15.0,15.0" fill="none" stroke="#c6c653" stroke-width="2.0" /><line stroke="#c6c653" stroke-width="2.0" x1="110.0" x2="175.0" y1="515.0" y2="515.0" /><path d="M 55.0,520.0 a15.0,15.0 0 0,0 15.0,15.0" fill="none" stroke="#c65353" stroke-width="2.0" /><line stroke="#c65353" stroke-width="2.0" x1="70.0" x2="155.0" y1="535.0" y2="535.0" /><path d="M 155.0,540.0 a15.0,15.0 0 0,1 -15.0,15.0" fill="none" stroke="#c653c6" stroke-width="2.0" /><line stroke="#c653c6" stroke-width="2.0" x1="95.0" x2="140.0" y1="555.0" y2="555.0" /><path d="M 95.0,560.0 a15.0,15.0 0 0,0 15.0,15.0" fill="none" stroke="#c65353" stroke-width="2.0" /><line stroke="#c65353" stroke-width="2.0" x1="110.0" x2="135.0" y1="575.0" y2="575.0" /><path d="M 135.0,580.0 a15.0,15.0 0 0,0 15.0,15.0" fill="none" stroke="#d98c8c" stroke-width="2.0" /><line stroke="#d98c8c" stroke-width="2.0" x1="150.0" x2="175.0" y1="595.0" y2="595.0" /><path d="M 135.0,600.0 a15.0,15.0 0 0,1 -15.0,15.0" fill="none" stroke="#d98c8c" stroke-width="2.0" /><line stroke="#d98c8c" stroke-width="2.0" x1="115.0" x2="120.0" y1="615.0" y2="615.0" /></g><g><circle cx="175.0" cy="15.0" fill="#c65353" id="NGENESIS" r="6.0" stroke="white" stroke-width="2.0" /><text dominant-baseline="middle" font-family="sans-serif" font-size="inherit" x="195.0" y="15.0">GENESIS</text><circle cx="155.0" cy="35.0" fill="#c6c653" id="NT1" r="6.0" stroke="white" stroke-width="2.0" /><text dominant-baseline="middle" font-family="sans-serif" font-size="inherit" x="195.0" y="35.0">T1</text><circle cx="135.0" cy="55.0" fill="#53c653" id="NT2" r="6.0" stroke="white" stroke-width="2.0" /><text dominant-baseline="middle" font-family="sans-serif" font-size="inherit" x="195.0" y="55.0">T2</text><circle cx="115.0" cy="75.0" fill="#53c6c6" id="NT3" r="6.0" stroke="white" stroke-width="2.0" /><text dominant-baseline="middle" font-family="sans-serif" font-size="inherit" x="195.0" y="75.0">T3</text><circle cx="95.0" cy="95.0" fill="#5353c6" id="NT4" r="6.0" stroke="white" stroke-width="2.0" /><text dominant-baseline="middle" font-family="sans-serif" font-size="inherit" x="195.0" y="95.0">T4</text><circle cx="175.0" cy="115.0" fill="#c653c6" id="NT9" r="6.0" stroke="white" stroke-width="2.0" /><text dominant-baseline="middle" font-family="sans-serif" font-size="inherit" x="195.0" y="115.0">T9</text><circle cx="75.0" cy="135.0" fill="#c65353" id="NT5" r="6.0" stroke="white" stroke-width="2.0" /><text dominant-baseline="middle" font-family="sans-serif" font-size="inherit" x="195.0" y="135.0">T5</text><circle cx="55.0" cy="155.0" fill="#d98c8c" id="NT6" r="6.0" stroke="white" stroke-width="2.0" /><text dominant-baseline="middle" font-family="sans-serif" font-size="inherit" x="195.0" y="155.0">T6</text><circle cx="95.0" cy="175.0" fill="#d9d98c" id="NT16" r="6.0" stroke="white" stroke-width="2.0" /><text dominant-baseline="middle" font-family="sans-serif" font-size="inherit" x="195.0" y="175.0">T16</text><circle cx="75.0" cy="195.0" fill="#8cd98c" id="NT7" r="6.0" stroke="white" stroke-width="2.0" /><text dominant-baseline="middle" font-family="sans-serif" font-size="inherit" x="195.0" y="195.0">T7</text><circle cx="155.0" cy="215.0" fill="#8cd9d9" id="NT8" r="6.0" stroke="white" stroke-width="2.0" /><text dominant-baseline="middle" font-family="sans-serif" font-size="inherit" x="195.0" y="215.0">T8</text><circle cx="75.0" cy="235.0" fill="#8c8cd9" id="NT11" r="6.0" stroke="white" stroke-width="2.0" /><text dominant-baseline="middle" font-family="sans-serif" font-size="inherit" x="195.0" y="235.0">T11</text><circle cx="35.0" cy="255.0" fill="#d98cd9" id="NT10" r="6.0" stroke="white" stroke-width="2.0" /><text dominant-baseline="middle" font-family="sans-serif" font-size="inherit" x="195.0" y="255.0">T10</text><circle cx="55.0" cy="275.0" fill="#d98c8c" id="NT14" r="6.0" stroke="white" stroke-width="2.0" /><text dominant-baseline="middle" font-family="sans-serif" font-size="inherit" x="195.0" y="275.0">T14</text><circle cx="155.0" cy="295.0" fill="#993333" id="NT20" r="6.0" stroke="white" stroke-width="2.0" /><text dominant-baseline="middle" font-family="sans-serif" font-size="inherit" x="195.0" y="295.0">T20</text><circle cx="75.0" cy="315.0" fill="#999933" id="NT12" r="6.0" stroke="white" stroke-width="2.0" /><text dominant-baseline="middle" font-family="sans-serif" font-size="inherit" x="195.0" y="315.0">T12</text><circle cx="35.0" cy="335.0" fill="#339933" id="NT13" r="6.0" stroke="white" stroke-width="2.0" /><text dominant-baseline="middle" font-family="sans-serif" font-size="inherit" x="195.0" y="335.0">T13</text><circle cx="75.0" cy="355.0" fill="#339999" id="NT18" r="6.0" stroke="white" stroke-width="2.0" /><text dominant-baseline="middle" font-family="sans-serif" font-size="inherit" x="195.0" y="355.0">T18</text><circle cx="55.0" cy="375.0" fill="#333399" id="NT15" r="6.0" stroke="white" stroke-width="2.0" /><text dominant-baseline="middle" font-family="sans-serif" font-size="inherit" x="195.0" y="375.0">T15</text><circle cx="95.0" cy="395.0" fill="#993399" id="NT17" r="6.0" stroke="white" stroke-width="2.0" /><text dominant-baseline="middle" font-family="sans-serif" font-size="inherit" x="195.0" y="395.0">T17</text><circle cx="75.0" cy="415.0" fill="#993333" id="NT19" r="6.0" stroke="white" stroke-width="2.0" /><text dominant-baseline="middle" font-family="sans-serif" font-size="inherit" x="195.0" y="415.0">T19</text><circle cx="55.0" cy="435.0" fill="#c65353" id="NT22" r="6.0" stroke="white" stroke-width="2.0" /><text dominant-baseline="middle" font-family="sans-serif" font-size="inherit" x="195.0" y="435.0">T22</text><circle cx="95.0" cy="455.0" fill="#c6c653" id="NT24" r="6.0" stroke="white" stroke-width="2.0" /><text dominant-baseline="middle" font-family="sans-serif" font-size="inherit" x="195.0" y="455.0">T24</text><circle cx="155.0" cy="475.0" fill="#53c653" id="NT21" r="6.0" stroke="white" stroke-width="2.0" /><text dominant-baseline="middle" font-family="sans-serif" font-size="inherit" x="195.0" y="475.0">T21</text><circle cx="135.0" cy="495.0" fill="#53c6c6" id="NT26" r="6.0" stroke="white" stroke-width="2.0" /><text dominant-baseline="middle" font-family="sans-serif" font-size="inherit" x="195.0" y="495.0">T26</text><circle cx="175.0" cy="515.0" fill="#5353c6" id="NT28" r="6.0" stroke="white" stroke-width="2.0" /><text dominant-baseline="middle" font-family="sans-serif" font-size="inherit" x="195.0" y="515.0">T28</text><circle cx="155.0" cy="535.0" fill="#c653c6" id="NT23" r="6.0" stroke="white" stroke-width="2.0" /><text dominant-baseline="middle" font-family="sans-serif" font-size="inherit" x="195.0" y="535.0">T23</text><circle cx="95.0" cy="555.0" fill="#c65353" id="NT25" r="6.0" stroke="white" stroke-width="2.0" /><text dominant-baseline="middle" font-family="sans-serif" font-size="inherit" x="195.0" y="555.0">T25</text><circle cx="135.0" cy="575.0" fill="#d98c8c" id="NT27" r="6.0" stroke="white" stroke-width="2.0" /><text dominant-baseline="middle" font-family="sans-serif" font-size="inherit" x="195.0" y="575.0">T27</text><circle cx="175.0" cy="595.0" fill="#d9d98c" id="NT29" r="6.0" stroke="white" stroke-width="2.0" /><text dominant-baseline="middle" font-family="sans-serif" font-size="inherit" x="195.0" y="595.0">T29</text><circle cx="115.0" cy="615.0" fill="#8cd98c" id="NT30" r="6.0" stroke="white" stroke-width="2.0" /><text dominant-baseline="middle" font-family="sans-serif" font-size="inherit" x="155.0" y="615.0">T30</text></g></svg>